<svg xmlns="http://www.w3.org/2000/svg" xmlns:xlink="http://www.w3.org/1999/xlink" viewBox="0 0 4934.59 1587.1"><defs><style>.cls-1{fill:url(#linear-gradient);}.cls-2{fill:url(#linear-gradient-2);}.cls-3{fill:url(#linear-gradient-3);}.cls-4{fill:url(#linear-gradient-4);}.cls-5{fill:url(#linear-gradient-5);}.cls-6{fill:url(#linear-gradient-6);}.cls-7{fill:url(#linear-gradient-7);}.cls-8{fill:url(#linear-gradient-8);}.cls-9{fill:#003a70;}</style><linearGradient id="linear-gradient" x1="785.42" y1="-182.96" x2="1315.77" y2="561.12" gradientUnits="userSpaceOnUse"><stop offset="0.1" stop-color="#11294f"/><stop offset="0.78" stop-color="#1d71b8"/></linearGradient><linearGradient id="linear-gradient-2" x1="1267.04" y1="600.12" x2="1740.43" y2="-72" gradientUnits="userSpaceOnUse"><stop offset="0" stop-color="#11294f"/><stop offset="0.72" stop-color="#1d71b8"/></linearGradient><linearGradient id="linear-gradient-3" x1="915.02" y1="868.06" x2="2609.43" y2="784.48" gradientUnits="userSpaceOnUse"><stop offset="0" stop-color="#1d71b8"/><stop offset="1" stop-color="#132e58"/></linearGradient><linearGradient id="linear-gradient-4" x1="1328.79" y1="1268.86" x2="1366.15" y2="-210.47" gradientUnits="userSpaceOnUse"><stop offset="0" stop-color="#132e58"/><stop offset="0.72" stop-color="#1d71b8"/></linearGradient><linearGradient id="linear-gradient-5" x1="889.23" y1="1944.18" x2="690.07" y2="761.54" gradientUnits="userSpaceOnUse"><stop offset="0.1" stop-color="#3461a2"/><stop offset="0.99" stop-color="#527ebf"/></linearGradient><linearGradient id="linear-gradient-6" x1="131.54" y1="1031.07" x2="660.77" y2="1176.39" gradientUnits="userSpaceOnUse"><stop offset="0.01" stop-color="#3461a2"/><stop offset="0.72" stop-color="#5d8ac6"/><stop offset="0.86" stop-color="#6592cd"/></linearGradient><linearGradient id="linear-gradient-7" x1="761.66" y1="500.89" x2="231.38" y2="261.59" gradientUnits="userSpaceOnUse"><stop offset="0.01" stop-color="#67a0d7"/><stop offset="0.85" stop-color="#90c3ea"/><stop offset="0.86" stop-color="#90c3ea"/></linearGradient><linearGradient id="linear-gradient-8" x1="181.7" y1="556.29" x2="418.18" y2="907.91" xlink:href="#linear-gradient-7"/></defs><title>spst-logo</title><g id="Layer_2" data-name="Layer 2"><g id="Layer_1-2" data-name="Layer 1"><polygon class="cls-1" points="891.35 609.91 482.14 0 1395.86 29.23 891.35 609.91"/><polygon class="cls-2" points="1395.86 29.23 891.35 609.91 1713.36 490.06 1395.86 29.23"/><polygon class="cls-3" points="984.49 745.57 1713.36 490.06 1688.84 1168.5 984.49 745.57"/><polygon class="cls-4" points="1688.84 1168.5 984.49 745.57 1190.89 1587.1 1688.84 1168.5"/><polyline class="cls-5" points="1182.27 1587.1 454.66 1512.02 804.05 823.51 1190.89 1587.1"/><polygon class="cls-6" points="92.42 1122.3 804.05 823.51 454.66 1512.02 92.42 1122.3"/><polygon class="cls-7" points="739.11 686.36 482.14 0 0 531.92 739.11 686.36"/><polygon class="cls-8" points="739.11 686.36 0 531.92 92.42 1122.3 739.11 686.36"/><path class="cls-9" d="M2045.06,958.2l150.27-14.64q13.46,75.65,55,111.1t111.92,35.48q74.51,0,112.35-31.57c25.25-21.06,37.82-45.58,37.82-73.79q0-27.07-15.9-46.16T2441,905.47q-27.09-9.36-123.68-33.36-124.1-30.79-174.16-75.61-70.45-63.12-70.42-153.88,0-58.33,33.15-109.24,33-50.92,95.39-77.47t150.44-26.63q144.15,0,216.73,63.12,72.75,63.12,76.43,168.48l-154.31,6.83q-10-59-42.66-84.82-32.46-25.75-97.63-25.77-67.37,0-105.45,27.62-24.51,17.7-24.52,47.47c0,18,7.73,33.56,22.9,46.41q29.39,24.51,142,51.1t166.61,55q53.89,28.43,84.43,77.69t30.54,121.79q0,65.76-36.56,123.1T2527,1192.62q-66.83,27.89-166.43,27.89-145,0-222.75-67Q2060.25,1086.48,2045.06,958.2Z"/><path class="cls-9" d="M2850,1207V442.37h247.81q140.8,0,183.5,11.48,65.74,17.2,110.12,74.84t44.28,148.87q0,70.4-25.51,118.4c-17,32-38.72,57.15-64.94,75.38s-52.91,30.36-80.12,36.25q-55.23,11-160.14,10.91H3004.4V1207Zm154.4-635.3v217h84.52q91.35,0,122-12,30.86-12,48.33-37.59t17.51-59.42q0-41.73-24.61-68.84c-16.26-18.08-37-29.42-62.06-33.91q-27.63-5.22-111-5.23Z"/><path class="cls-9" d="M3576.81,958.2,3727,943.56q13.62,75.65,55,111.1t111.91,35.48q74.63,0,112.45-31.57c25.15-21.06,37.73-45.58,37.73-73.79,0-18-5.22-33.41-15.81-46.16s-29.2-23.72-55.6-33.15q-27.07-9.36-123.59-33.36-124.22-30.79-174.25-75.61-70.32-63.12-70.42-153.88,0-58.33,33.14-109.24T3733,455.91q62.25-26.57,150.45-26.63,144,0,216.73,63.12t76.43,168.48l-154.39,6.83q-10-59-42.58-84.82t-97.72-25.77q-67.35,0-105.26,27.62c-16.53,11.8-24.61,27.66-24.61,47.47,0,18,7.63,33.56,23,46.41q29.1,24.51,141.82,51.1t166.61,55q54,28.43,84.52,77.69c20.39,32.88,30.45,73.47,30.45,121.79q0,65.76-36.55,123.1-36.39,57.47-103.21,85.28t-166.34,27.89q-145,0-222.66-67T3576.81,958.2Zm135.53-716.64h118.39l56.4,77.72,60.45-77.72h117.93l-108,153.84H3821.92Z"/><path class="cls-9" d="M4553.85,1207V571.69H4327V442.37h607.62V571.69H4708.24V1207Z"/></g></g></svg>